<svg xmlns="http://www.w3.org/2000/svg" width="96" height="96" viewBox="0 0 96 96" fill="none">
  <defs>
    <linearGradient id="storymGrad" x1="14" y1="10" x2="82" y2="86" gradientUnits="userSpaceOnUse">
      <stop offset="0" stop-color="#FFC56B"></stop>
      <stop offset=".52" stop-color="#FF7E9D"></stop>
      <stop offset="1" stop-color="#B66BE0"></stop>
    </linearGradient>
  </defs>
  
  <rect x="4" y="4" width="88" height="88" rx="26" fill="url(#storymGrad)"></rect>
  
  <rect x="4" y="4" width="88" height="44" rx="26" fill="#fff" opacity=".10"></rect>
  
  <path fill="#fff" fill-rule="evenodd" d="&#xA;    M30 24 H66 A12 12 0 0 1 78 36 V54 A12 12 0 0 1 66 66 H54 L42 78 V66 H30 A12 12 0 0 1 18 54 V36 A12 12 0 0 1 30 24 Z&#xA;    M48 32 L51.6 42.4 L62 46 L51.6 49.6 L48 60 L44.4 49.6 L34 46 L44.4 42.4 Z"></path>
</svg>